<svg width="100" height="100" viewBox="0 0 100 100" fill="none" xmlns="http://www.w3.org/2000/svg">
<path d="M47.7235 19.1641C49.1531 18.4331 50.8469 18.4331 52.2765 19.1641L77.5873 32.1073C79.259 32.9621 80.3109 34.6814 80.3109 36.559V61.441C80.3109 63.3186 79.259 65.0379 77.5873 65.8927L52.2765 78.8359C50.8469 79.5669 49.1531 79.5669 47.7235 78.8359L22.4127 65.8927C20.741 65.0379 19.6891 63.3186 19.6891 61.441V36.559C19.6891 34.6814 20.741 32.9621 22.4127 32.1073L47.7235 19.1641Z" fill="#FFE141"/>
<path d="M47.7235 28.8516C49.1531 28.1206 50.8469 28.1206 52.2765 28.8516L68.1152 36.951C69.7869 37.8059 70.8387 39.5252 70.8387 41.4027V56.5973C70.8387 58.4748 69.7869 60.1941 68.1152 61.049L52.2765 69.1484C50.8469 69.8794 49.1531 69.8794 47.7235 69.1484L31.8848 61.049C30.2131 60.1941 29.1613 58.4748 29.1613 56.5973V41.4027C29.1613 39.5252 30.2131 37.8059 31.8848 36.951L47.7235 28.8516Z" fill="#500FBF"/>
<line x1="49" y1="21" x2="49" y2="77" stroke="#FFE141" stroke-width="10"/>
<g clip-path="url(#clip0_44_362)">
<path d="M7.82567 5.33324C9.09239 4.56726 10.5719 4.50982 11.8393 5.02513L11.8717 5.04111C11.8867 5.04834 11.902 5.05489 11.9176 5.06075C11.9333 5.06646 11.9487 5.07302 11.9636 5.08039L18.2905 7.81884C19.8788 7.46396 21.5335 7.5461 23.0788 8.05651C23.3138 7.93238 23.5566 7.82382 23.8057 7.73152L23.7522 7.63885C23.2022 6.68623 23.2405 5.53252 23.8442 4.61817L24.2431 3.94908C24.2798 3.89451 24.327 3.84771 24.3818 3.81136C24.4366 3.775 24.498 3.7498 24.5626 3.73718C24.6272 3.72457 24.6936 3.7248 24.758 3.73785C24.8225 3.75091 24.8838 3.77653 24.9383 3.81327C24.9929 3.85 25.0397 3.89712 25.0761 3.95194C25.1124 4.00675 25.1376 4.0682 25.1502 4.13276C25.1629 4.19731 25.1626 4.26373 25.1496 4.3282C25.1365 4.39267 25.1109 4.45394 25.0742 4.5085L24.6839 5.17259C24.2897 5.76972 24.2633 6.52398 24.6183 7.13885L24.8048 7.46188C26.0176 7.25184 27.2657 7.41997 28.3797 7.94346C29.4938 8.46694 30.4198 9.32045 31.0322 10.3882C32.6487 13.1881 31.769 16.7583 29.0593 18.4509C28.7452 19.9398 28.0593 21.325 27.0653 22.4773L27.1573 22.6366C27.4123 23.0783 27.8305 23.4027 28.3223 23.5344L29.2102 23.7723C29.6064 23.8785 29.8464 24.2942 29.7402 24.6903C29.6853 24.8952 29.5558 25.0509 29.3912 25.1459C29.2267 25.2409 29.0271 25.2752 28.8222 25.2203L27.9343 24.9824C27.124 24.7626 26.4219 24.2543 25.9601 23.553C25.647 23.8092 25.3169 24.0441 24.9723 24.2561L21.6624 26.1671C21.9987 26.8897 22.0743 27.7006 21.8635 28.4874L21.6256 29.3753C21.5706 29.5802 21.4411 29.7359 21.2766 29.8309C21.112 29.9259 20.9125 29.9602 20.7076 29.9053C20.3114 29.7992 20.0714 29.3835 20.1776 28.9873L20.4155 28.0994C20.5191 27.7104 20.4975 27.2987 20.3538 26.9226L19.8385 27.2201C19.2609 27.5538 18.6437 27.8139 18.0015 27.9943C18.0756 28.3711 18.03 28.7617 17.8713 29.1113C17.7125 29.4609 17.4484 29.7522 17.1159 29.9444L15.8428 30.6794C15.4878 30.8844 15.0183 30.7513 14.8133 30.3962C14.6083 30.0411 14.7328 29.5767 15.0878 29.3717L16.3609 28.6367C16.4251 28.6003 16.4756 28.5439 16.5047 28.476C16.5337 28.4081 16.5397 28.3326 16.5216 28.261C15.0018 28.3915 13.4765 28.0846 12.1254 27.3766L6.69079 24.9556L5.83866 25.2316C5.55251 25.316 5.34751 24.9609 5.56866 24.764L6.23379 24.164L6.85442 18.247C6.92682 16.4832 7.5805 14.7928 8.71364 13.4393C7.63757 13.0807 6.73773 12.3271 6.196 11.3306C5.05296 9.23077 5.77537 6.56202 7.82517 5.33238M18.1108 25.8436C18.3608 25.7409 18.6036 25.6216 18.8375 25.4863L21.006 24.2343L14.016 12.1273L11.8475 13.3793C11.612 13.5153 11.3871 13.6659 11.1748 13.83L18.1108 25.8436ZM11.9006 25.0873L8.72414 19.5854L8.31559 23.4898L11.9006 25.0873ZM27.1466 17.8081C26.859 17.6937 26.6187 17.4853 26.4646 17.2169L22.8296 10.9209C22.6671 10.6394 22.616 10.3248 22.6623 10.029C21.3165 9.53675 19.852 9.46937 18.4667 9.836L25.2177 21.5291C26.2256 20.5149 26.8988 19.2163 27.1466 17.8081ZM27.6761 13.4552C27.9058 13.3226 28.0734 13.1041 28.142 12.848C28.2107 12.5918 28.1747 12.3188 28.0421 12.0891C27.9095 11.8595 27.6911 11.6919 27.4349 11.6232C27.1787 11.5546 26.9058 11.5905 26.6761 11.7231C26.4464 11.8557 26.2788 12.0741 26.2102 12.3303C26.1415 12.5865 26.1775 12.8595 26.3101 13.0891C26.4427 13.3188 26.6611 13.4864 26.9173 13.5551C27.1734 13.6237 27.4464 13.5878 27.6761 13.4552Z" fill="white"/>
</g>
<path d="M6.91724 93.126C6.07724 93.126 5.32591 92.9627 4.66324 92.636C4.00058 92.3093 3.48258 91.8567 3.10924 91.278C2.74524 90.69 2.56324 90.0227 2.56324 89.276V86.896C2.56324 86.1493 2.74058 85.4867 3.09524 84.908C3.45924 84.3293 3.96324 83.8813 4.60724 83.564C5.26058 83.2373 6.00258 83.074 6.83324 83.074C7.66391 83.074 8.40591 83.2 9.05924 83.452C9.71258 83.6947 10.2166 84.04 10.5712 84.488C10.9352 84.936 11.1172 85.4447 11.1172 86.014C11.1172 86.3873 10.9959 86.6813 10.7532 86.896C10.5106 87.1013 10.1792 87.204 9.75924 87.204C9.51658 87.204 9.27858 87.1713 9.04524 87.106C9.07324 86.91 9.08724 86.672 9.08724 86.392C9.08724 85.944 8.87724 85.58 8.45724 85.3C8.03724 85.0107 7.49591 84.866 6.83324 84.866C6.17991 84.866 5.64791 85.0573 5.23724 85.44C4.82658 85.8133 4.62124 86.2987 4.62124 86.896V89.276C4.62124 89.8827 4.83124 90.3773 5.25124 90.76C5.68058 91.1427 6.23591 91.334 6.91724 91.334C7.57991 91.334 8.11658 91.194 8.52724 90.914C8.94724 90.634 9.15724 90.27 9.15724 89.822C9.15724 89.514 9.14324 89.29 9.11524 89.15C9.36724 89.094 9.59591 89.066 9.80124 89.066C10.2212 89.066 10.5572 89.1733 10.8092 89.388C11.0612 89.6027 11.1872 89.8967 11.1872 90.27C11.1872 90.8207 11.0052 91.3153 10.6412 91.754C10.2866 92.1833 9.78258 92.5193 9.12924 92.762C8.48524 93.0047 7.74791 93.126 6.91724 93.126ZM18.6263 93.126C18.1316 93.126 17.6836 93.0187 17.2823 92.804C16.8809 92.58 16.5636 92.2767 16.3303 91.894C16.0969 91.502 15.9803 91.0633 15.9803 90.578V88.422C15.9803 87.9367 16.1016 87.5027 16.3443 87.12C16.5963 86.728 16.9416 86.4247 17.3803 86.21C17.8189 85.986 18.3043 85.874 18.8363 85.874C19.1536 85.874 19.4943 85.9393 19.8583 86.07C20.2316 86.2007 20.5396 86.3827 20.7823 86.616L20.8383 86.546C20.7916 86.4713 20.6889 86.378 20.5303 86.266V84.334C20.5303 83.942 20.6889 83.634 21.0063 83.41C21.3329 83.186 21.8229 83.074 22.4763 83.074V91.852C22.4763 92.216 22.3316 92.5193 22.0423 92.762C21.7529 93.0047 21.3096 93.126 20.7123 93.126V92.37C20.8243 92.23 20.9129 92.104 20.9783 91.992L20.9083 91.936C20.6096 92.3373 20.2876 92.636 19.9423 92.832C19.6063 93.028 19.1676 93.126 18.6263 93.126ZM19.2283 91.474C19.6203 91.474 19.9376 91.3853 20.1803 91.208C20.4323 91.0213 20.5583 90.788 20.5583 90.508V88.492C20.5583 88.2213 20.4323 87.9927 20.1803 87.806C19.9376 87.6193 19.6203 87.526 19.2283 87.526C18.7989 87.526 18.4676 87.6147 18.2343 87.792C18.0103 87.9693 17.8983 88.2213 17.8983 88.548V90.438C17.8983 90.774 18.0103 91.0307 18.2343 91.208C18.4676 91.3853 18.7989 91.474 19.2283 91.474ZM27.157 93.126C26.5783 93.126 26.0416 93.0093 25.547 92.776C25.0616 92.5427 24.6743 92.2253 24.385 91.824C24.0956 91.4227 23.951 90.9747 23.951 90.48V88.688C23.951 88.1653 24.0956 87.6893 24.385 87.26C24.6836 86.8213 25.0803 86.4807 25.575 86.238C26.0696 85.9953 26.6016 85.874 27.171 85.874C27.731 85.874 28.2443 85.9907 28.711 86.224C29.187 86.448 29.5603 86.77 29.831 87.19C30.1016 87.6007 30.237 88.0673 30.237 88.59V89.346C30.237 89.57 30.153 89.7613 29.985 89.92C29.817 90.0693 29.6023 90.144 29.341 90.144H25.813V90.34C25.813 90.7133 25.925 91.0213 26.149 91.264C26.3823 91.4973 26.723 91.614 27.171 91.614C27.6096 91.614 27.9316 91.5207 28.137 91.334C28.3423 91.138 28.445 90.8953 28.445 90.606C28.6316 90.5873 28.7716 90.578 28.865 90.578C29.2476 90.578 29.5416 90.6573 29.747 90.816C29.9523 90.9747 30.055 91.208 30.055 91.516C30.055 91.768 29.929 92.02 29.677 92.272C29.425 92.524 29.075 92.7293 28.627 92.888C28.1883 93.0467 27.6983 93.126 27.157 93.126ZM28.501 88.786V88.59C28.501 88.2167 28.375 87.9227 28.123 87.708C27.8803 87.484 27.5583 87.372 27.157 87.372C26.7556 87.372 26.429 87.484 26.177 87.708C25.9343 87.9227 25.813 88.2167 25.813 88.59V88.786H28.501ZM38.1889 93.126C37.5729 93.126 37.0269 93.014 36.5509 92.79C36.0749 92.566 35.7015 92.258 35.4309 91.866C35.1695 91.4647 35.0389 91.012 35.0389 90.508V88.646C35.0389 88.1047 35.1695 87.624 35.4309 87.204C35.7015 86.784 36.0749 86.4573 36.5509 86.224C37.0269 85.9907 37.5682 85.874 38.1749 85.874C38.7442 85.874 39.2482 85.958 39.6869 86.126C40.1255 86.2847 40.4662 86.5087 40.7089 86.798C40.9609 87.0873 41.0869 87.4187 41.0869 87.792C41.0869 88.1 40.9655 88.3473 40.7229 88.534C40.4802 88.7207 40.1582 88.814 39.7569 88.814C39.6355 88.814 39.5469 88.8093 39.4909 88.8C39.4909 88.4267 39.3742 88.1233 39.1409 87.89C38.9075 87.6473 38.6042 87.526 38.2309 87.526C37.8575 87.526 37.5495 87.6427 37.3069 87.876C37.0735 88.1 36.9569 88.3893 36.9569 88.744V90.368C36.9569 90.6947 37.0735 90.9607 37.3069 91.166C37.5495 91.3713 37.8622 91.474 38.2449 91.474C38.6182 91.474 38.9215 91.3573 39.1549 91.124C39.3975 90.8907 39.5189 90.5873 39.5189 90.214C39.5842 90.2047 39.6775 90.2 39.7989 90.2C40.2002 90.2 40.5222 90.2933 40.7649 90.48C41.0075 90.6573 41.1289 90.9 41.1289 91.208C41.1289 91.5813 41.0029 91.9127 40.7509 92.202C40.5082 92.4913 40.1629 92.72 39.7149 92.888C39.2669 93.0467 38.7582 93.126 38.1889 93.126ZM45.0508 93.126C44.4348 93.126 43.8748 93.014 43.3708 92.79C42.8668 92.566 42.4702 92.258 42.1808 91.866C41.8915 91.4647 41.7468 91.012 41.7468 90.508V88.646C41.7468 88.1327 41.8868 87.666 42.1668 87.246C42.4468 86.8167 42.8388 86.4807 43.3428 86.238C43.8468 85.9953 44.4162 85.874 45.0508 85.874C45.6855 85.874 46.2548 85.9953 46.7588 86.238C47.2628 86.4807 47.6548 86.8167 47.9348 87.246C48.2148 87.666 48.3548 88.1327 48.3548 88.646V90.508C48.3548 91.012 48.2102 91.4647 47.9208 91.866C47.6315 92.258 47.2348 92.566 46.7308 92.79C46.2268 93.014 45.6668 93.126 45.0508 93.126ZM45.0508 91.474C45.4895 91.474 45.8302 91.376 46.0728 91.18C46.3155 90.984 46.4368 90.7133 46.4368 90.368V88.744C46.4368 88.38 46.3108 88.086 46.0588 87.862C45.8162 87.638 45.4802 87.526 45.0508 87.526C44.6215 87.526 44.2808 87.638 44.0288 87.862C43.7862 88.086 43.6648 88.38 43.6648 88.744V90.368C43.6648 90.7133 43.7862 90.984 44.0288 91.18C44.2715 91.376 44.6122 91.474 45.0508 91.474ZM49.2593 87.33C49.2593 86.8633 49.4086 86.504 49.7073 86.252C50.0059 86 50.4586 85.874 51.0653 85.874V86.7C50.9253 86.8493 50.8086 87.008 50.7153 87.176L50.8133 87.232C51.1119 86.784 51.4199 86.448 51.7373 86.224C52.0639 85.9907 52.4513 85.874 52.8993 85.874C53.6926 85.874 54.2433 86.2707 54.5513 87.064C54.7846 86.6907 55.0833 86.4013 55.4473 86.196C55.8113 85.9813 56.2219 85.874 56.6793 85.874C57.3139 85.874 57.8179 86.1073 58.1913 86.574C58.5739 87.0407 58.7653 87.6333 58.7653 88.352V92.006C58.7653 92.4073 58.6113 92.6967 58.3033 92.874C57.9953 93.042 57.5193 93.126 56.8753 93.126V88.52C56.8753 88.2027 56.8053 87.9507 56.6653 87.764C56.5253 87.5773 56.3059 87.484 56.0073 87.484C55.7086 87.484 55.4566 87.5913 55.2513 87.806C55.0459 88.0113 54.9433 88.3613 54.9433 88.856V92.006C54.9433 92.4073 54.7893 92.6967 54.4813 92.874C54.1826 93.042 53.7159 93.126 53.0813 93.126V88.52C53.0813 88.2027 53.0113 87.9507 52.8713 87.764C52.7313 87.5773 52.5166 87.484 52.2273 87.484C51.5086 87.484 51.1493 87.9647 51.1493 88.926V92.006C51.1493 92.4073 50.9953 92.6967 50.6873 92.874C50.3793 93.042 49.9033 93.126 49.2593 93.126V87.33ZM63.3738 93.126C62.7951 93.126 62.2584 93.0093 61.7638 92.776C61.2784 92.5427 60.8911 92.2253 60.6018 91.824C60.3124 91.4227 60.1678 90.9747 60.1678 90.48V88.688C60.1678 88.1653 60.3124 87.6893 60.6018 87.26C60.9004 86.8213 61.2971 86.4807 61.7918 86.238C62.2864 85.9953 62.8184 85.874 63.3878 85.874C63.9478 85.874 64.4611 85.9907 64.9278 86.224C65.4038 86.448 65.7771 86.77 66.0478 87.19C66.3184 87.6007 66.4538 88.0673 66.4538 88.59V89.346C66.4538 89.57 66.3698 89.7613 66.2018 89.92C66.0338 90.0693 65.8191 90.144 65.5578 90.144H62.0298V90.34C62.0298 90.7133 62.1418 91.0213 62.3658 91.264C62.5991 91.4973 62.9398 91.614 63.3878 91.614C63.8264 91.614 64.1484 91.5207 64.3538 91.334C64.5591 91.138 64.6618 90.8953 64.6618 90.606C64.8484 90.5873 64.9884 90.578 65.0818 90.578C65.4644 90.578 65.7584 90.6573 65.9638 90.816C66.1691 90.9747 66.2718 91.208 66.2718 91.516C66.2718 91.768 66.1458 92.02 65.8938 92.272C65.6418 92.524 65.2918 92.7293 64.8438 92.888C64.4051 93.0467 63.9151 93.126 63.3738 93.126ZM64.7178 88.786V88.59C64.7178 88.2167 64.5918 87.9227 64.3398 87.708C64.0971 87.484 63.7751 87.372 63.3738 87.372C62.9724 87.372 62.6458 87.484 62.3938 87.708C62.1511 87.9227 62.0298 88.2167 62.0298 88.59V88.786H64.7178ZM71.5103 87.526C70.9503 87.526 70.4976 87.6707 70.1523 87.96C69.807 88.2493 69.6343 88.6133 69.6343 89.052V92.006C69.6343 92.4073 69.4756 92.6967 69.1583 92.874C68.8503 93.042 68.3696 93.126 67.7163 93.126V87.33C67.7163 86.8633 67.8703 86.504 68.1783 86.252C68.4863 86 68.9436 85.874 69.5503 85.874V86.7C69.4103 86.8493 69.2936 87.008 69.2003 87.176L69.2983 87.232C69.8863 86.3267 70.619 85.874 71.4963 85.874C71.9163 85.874 72.2336 85.986 72.4483 86.21C72.663 86.434 72.7703 86.7187 72.7703 87.064C72.7703 87.3253 72.7003 87.554 72.5603 87.75C72.299 87.6007 71.949 87.526 71.5103 87.526ZM76.3471 93.126C75.7311 93.126 75.1851 93.014 74.7091 92.79C74.2331 92.566 73.8597 92.258 73.5891 91.866C73.3277 91.4647 73.1971 91.012 73.1971 90.508V88.646C73.1971 88.1047 73.3277 87.624 73.5891 87.204C73.8597 86.784 74.2331 86.4573 74.7091 86.224C75.1851 85.9907 75.7264 85.874 76.3331 85.874C76.9024 85.874 77.4064 85.958 77.8451 86.126C78.2837 86.2847 78.6244 86.5087 78.8671 86.798C79.1191 87.0873 79.2451 87.4187 79.2451 87.792C79.2451 88.1 79.1237 88.3473 78.8811 88.534C78.6384 88.7207 78.3164 88.814 77.9151 88.814C77.7937 88.814 77.7051 88.8093 77.6491 88.8C77.6491 88.4267 77.5324 88.1233 77.2991 87.89C77.0657 87.6473 76.7624 87.526 76.3891 87.526C76.0157 87.526 75.7077 87.6427 75.4651 87.876C75.2317 88.1 75.1151 88.3893 75.1151 88.744V90.368C75.1151 90.6947 75.2317 90.9607 75.4651 91.166C75.7077 91.3713 76.0204 91.474 76.4031 91.474C76.7764 91.474 77.0797 91.3573 77.3131 91.124C77.5557 90.8907 77.6771 90.5873 77.6771 90.214C77.7424 90.2047 77.8357 90.2 77.9571 90.2C78.3584 90.2 78.6804 90.2933 78.9231 90.48C79.1657 90.6573 79.2871 90.9 79.2871 91.208C79.2871 91.5813 79.1611 91.9127 78.9091 92.202C78.6664 92.4913 78.3211 92.72 77.8731 92.888C77.4251 93.0467 76.9164 93.126 76.3471 93.126ZM81.7865 85.342C81.4318 85.342 81.1332 85.2393 80.8905 85.034C80.6572 84.8193 80.5405 84.544 80.5405 84.208C80.5405 83.872 80.6572 83.6013 80.8905 83.396C81.1332 83.1813 81.4318 83.074 81.7865 83.074C82.1412 83.074 82.4352 83.1813 82.6685 83.396C82.9112 83.6013 83.0325 83.872 83.0325 84.208C83.0325 84.544 82.9112 84.8193 82.6685 85.034C82.4352 85.2393 82.1412 85.342 81.7865 85.342ZM80.8205 86.994C80.8205 86.5927 80.9792 86.308 81.2965 86.14C81.6138 85.9627 82.0945 85.874 82.7385 85.874V92.006C82.7385 92.4073 82.5798 92.6967 82.2625 92.874C81.9452 93.042 81.4645 93.126 80.8205 93.126V86.994ZM87.2422 93.126C86.6262 93.126 86.0662 93.014 85.5622 92.79C85.0582 92.566 84.6616 92.258 84.3722 91.866C84.0829 91.4647 83.9382 91.012 83.9382 90.508V88.646C83.9382 88.1327 84.0782 87.666 84.3582 87.246C84.6382 86.8167 85.0302 86.4807 85.5342 86.238C86.0382 85.9953 86.6076 85.874 87.2422 85.874C87.8769 85.874 88.4462 85.9953 88.9502 86.238C89.4542 86.4807 89.8462 86.8167 90.1262 87.246C90.4062 87.666 90.5462 88.1327 90.5462 88.646V90.508C90.5462 91.012 90.4016 91.4647 90.1122 91.866C89.8229 92.258 89.4262 92.566 88.9222 92.79C88.4182 93.014 87.8582 93.126 87.2422 93.126ZM87.2422 91.474C87.6809 91.474 88.0216 91.376 88.2642 91.18C88.5069 90.984 88.6282 90.7133 88.6282 90.368V88.744C88.6282 88.38 88.5022 88.086 88.2502 87.862C88.0076 87.638 87.6716 87.526 87.2422 87.526C86.8129 87.526 86.4722 87.638 86.2202 87.862C85.9776 88.086 85.8562 88.38 85.8562 88.744V90.368C85.8562 90.7133 85.9776 90.984 86.2202 91.18C86.4629 91.376 86.8036 91.474 87.2422 91.474ZM94.4047 93.126C93.4527 93.126 92.7013 92.9673 92.1507 92.65C91.6 92.3233 91.3247 91.8893 91.3247 91.348C91.3247 91.1053 91.4273 90.9 91.6327 90.732C91.8473 90.564 92.188 90.48 92.6547 90.48C92.7293 90.8533 92.916 91.1473 93.2147 91.362C93.5133 91.5673 93.8633 91.67 94.2647 91.67C94.7313 91.67 95.0907 91.614 95.3427 91.502C95.604 91.39 95.7347 91.2267 95.7347 91.012C95.7347 90.8253 95.632 90.662 95.4267 90.522C95.2213 90.382 94.8107 90.2373 94.1947 90.088C93.476 89.92 92.916 89.752 92.5147 89.584C92.1227 89.4067 91.8333 89.1873 91.6467 88.926C91.46 88.6647 91.3667 88.3193 91.3667 87.89C91.3667 87.2833 91.6187 86.798 92.1227 86.434C92.636 86.0607 93.35 85.874 94.2647 85.874C95.1607 85.874 95.8887 86.028 96.4487 86.336C97.0087 86.644 97.2887 87.0547 97.2887 87.568C97.2887 87.8293 97.1907 88.0207 96.9947 88.142C96.7987 88.254 96.472 88.3147 96.0147 88.324C95.8933 87.9693 95.7067 87.708 95.4547 87.54C95.212 87.3627 94.862 87.274 94.4047 87.274C94.078 87.274 93.7887 87.33 93.5367 87.442C93.2847 87.554 93.1587 87.6893 93.1587 87.848C93.1587 88.0253 93.2613 88.1653 93.4667 88.268C93.6813 88.3707 94.036 88.4733 94.5307 88.576C95.604 88.8093 96.374 89.1173 96.8407 89.5C97.3167 89.8827 97.5547 90.4007 97.5547 91.054C97.5547 91.4553 97.4287 91.8147 97.1767 92.132C96.9247 92.4493 96.5607 92.6967 96.0847 92.874C95.6087 93.042 95.0487 93.126 94.4047 93.126Z" fill="white"/>
<defs>
<clipPath id="clip0_44_362">
<rect width="32" height="32" fill="white" transform="matrix(-1 0 0 1 33 1)"/>
</clipPath>
</defs>
</svg>
