<svg width="100" height="100" viewBox="0 0 100 100" fill="none" xmlns="http://www.w3.org/2000/svg">
<g clip-path="url(#clip0_44_362)">
<path d="M16.7235 16.1641C18.1531 15.4331 19.8469 15.4331 21.2765 16.1641L30.1329 20.693C31.8045 21.5478 32.8564 23.2671 32.8564 25.1447V33.1982C32.8564 35.0757 31.8045 36.795 30.1329 37.6499L21.2765 42.1788C19.8469 42.9098 18.1531 42.9098 16.7235 42.1788L7.86713 37.6499C6.19546 36.795 5.14359 35.0757 5.14359 33.1982V25.1447C5.14359 23.2671 6.19546 21.5478 7.86713 20.693L16.7235 16.1641Z" fill="#FFE141"/>
<path d="M16.7235 20.5927C18.1531 19.8616 19.8469 19.8616 21.2765 20.5927L25.8027 22.9073C27.4744 23.7621 28.5263 25.4814 28.5263 27.359V30.9839C28.5263 32.8615 27.4744 34.5808 25.8027 35.4356L21.2765 37.7502C19.8469 38.4812 18.1531 38.4812 16.7235 37.7502L12.1973 35.4356C10.5256 34.5808 9.47372 32.8615 9.47372 30.9839V27.359C9.47372 25.4814 10.5256 23.7621 12.1973 22.9073L16.7235 20.5927Z" fill="#500FBF"/>
<path d="M46.7235 16.1641C48.1531 15.4331 49.8469 15.4331 51.2765 16.1641L60.1329 20.693C61.8045 21.5478 62.8564 23.2671 62.8564 25.1447V33.1982C62.8564 35.0757 61.8045 36.795 60.1329 37.6499L51.2765 42.1788C49.8469 42.9098 48.1531 42.9098 46.7235 42.1788L37.8671 37.6499C36.1955 36.795 35.1436 35.0757 35.1436 33.1982V25.1447C35.1436 23.2671 36.1955 21.5478 37.8671 20.693L46.7235 16.1641Z" fill="#FFE141"/>
<path d="M46.7235 20.5927C48.1531 19.8616 49.8469 19.8616 51.2765 20.5927L55.8027 22.9073C57.4744 23.7621 58.5263 25.4814 58.5263 27.359V30.9839C58.5263 32.8615 57.4744 34.5808 55.8027 35.4356L51.2765 37.7502C49.8469 38.4812 48.1531 38.4812 46.7235 37.7502L42.1973 35.4356C40.5256 34.5808 39.4737 32.8615 39.4737 30.9839V27.359C39.4737 25.4814 40.5256 23.7621 42.1973 22.9073L46.7235 20.5927Z" fill="#500FBF"/>
<path d="M31.7235 39.1641C33.1531 38.4331 34.8469 38.4331 36.2765 39.1641L45.1329 43.693C46.8045 44.5478 47.8564 46.2671 47.8564 48.1447V56.1982C47.8564 58.0757 46.8045 59.795 45.1329 60.6499L36.2765 65.1788C34.8469 65.9098 33.1531 65.9098 31.7235 65.1788L22.8671 60.6499C21.1955 59.795 20.1436 58.0757 20.1436 56.1982V48.1447C20.1436 46.2671 21.1955 44.5478 22.8671 43.693L31.7235 39.1641Z" fill="#FFE141"/>
<path d="M31.7235 43.5927C33.1531 42.8616 34.8469 42.8616 36.2765 43.5927L40.8027 45.9073C42.4744 46.7621 43.5263 48.4814 43.5263 50.359V53.9839C43.5263 55.8615 42.4744 57.5808 40.8027 58.4356L36.2765 60.7502C34.8469 61.4812 33.1531 61.4812 31.7235 60.7502L27.1973 58.4356C25.5256 57.5808 24.4737 55.8615 24.4737 53.9839V50.359C24.4737 48.4814 25.5256 46.7621 27.1973 45.9073L31.7235 43.5927Z" fill="#500FBF"/>
<path d="M71.8875 40.001C73.3675 39.971 74.6775 40.661 75.5175 41.741L75.5375 41.771C75.5469 41.7848 75.5569 41.7981 75.5675 41.811C75.5782 41.8238 75.5882 41.8371 75.5975 41.851L79.7075 47.386C81.2604 47.8728 82.6524 48.7713 83.7355 49.986C84.001 49.996 84.2656 50.0234 84.5275 50.068V49.961C84.5275 48.861 85.1375 47.881 86.1175 47.391L86.7975 47.011C86.8566 46.9821 86.9208 46.9651 86.9864 46.9611C87.0521 46.957 87.1179 46.9659 87.1801 46.9872C87.2423 47.0086 87.2997 47.042 87.3491 47.0855C87.3984 47.1291 87.4386 47.1819 87.4675 47.241C87.4964 47.3001 87.5134 47.3643 87.5174 47.43C87.5215 47.4956 87.5126 47.5614 87.4913 47.6236C87.4699 47.6859 87.4365 47.7433 87.393 47.7926C87.3494 47.8419 87.2966 47.8821 87.2375 47.911L86.5675 48.291C85.9275 48.611 85.5275 49.251 85.5275 49.961V50.334C86.6829 50.7585 87.6797 51.5282 88.3827 52.5386C89.0858 53.5489 89.461 54.7511 89.4575 55.982C89.4575 59.215 86.9105 61.867 83.7175 61.978C82.7011 63.1105 81.4144 63.9671 79.9775 64.468V64.652C79.9775 65.162 80.1775 65.652 80.5375 66.012L81.1875 66.662C81.4775 66.952 81.4775 67.432 81.1875 67.722C81.0375 67.872 80.8475 67.942 80.6575 67.942C80.4675 67.942 80.2775 67.872 80.1275 67.722L79.4775 67.072C78.8856 66.4765 78.5318 65.6852 78.4825 64.847C78.0832 64.9123 77.6799 64.9507 77.2755 64.962H73.4535C73.3835 65.756 73.0435 66.496 72.4675 67.072L71.8175 67.722C71.6675 67.872 71.4775 67.942 71.2875 67.942C71.0975 67.942 70.9075 67.872 70.7575 67.722C70.4675 67.432 70.4675 66.952 70.7575 66.662L71.4075 66.012C71.6917 65.7269 71.8789 65.3595 71.9425 64.962H71.3475C70.6804 64.9621 70.0159 64.8788 69.3695 64.714C69.2452 65.0774 69.0105 65.3928 68.6982 65.6162C68.3859 65.8396 68.0115 65.9598 67.6275 65.96H66.1575C65.7475 65.96 65.4075 65.61 65.4075 65.2C65.4075 64.79 65.7475 64.45 66.1575 64.45H67.6275C67.7013 64.4506 67.7733 64.427 67.8324 64.3827C67.8914 64.3385 67.9343 64.276 67.9545 64.205C66.5731 63.5581 65.4056 62.5297 64.5895 61.241L61.0935 56.427L60.2175 56.24C59.9275 56.17 59.9275 55.76 60.2175 55.7L61.0935 55.513L64.5895 50.699C65.5341 49.2077 66.9454 48.0707 68.6035 47.465C67.8508 46.6165 67.4484 45.5139 67.4775 44.38C67.5375 41.99 69.4975 40.04 71.8875 40M70.5395 62.906C70.8073 62.9421 71.0773 62.9602 71.3475 62.96L73.8515 62.96V48.98H71.3475C71.0755 48.98 70.8055 48.998 70.5395 49.034V62.906ZM65.5395 59.146V52.793L63.2335 55.97L65.5395 59.146ZM82.3825 60.465C82.1906 60.2222 82.0867 59.9215 82.0875 59.612V52.342C82.0875 52.017 82.2005 51.719 82.3885 51.486C81.4691 50.3868 80.2345 49.5962 78.8515 49.221V62.723C80.2315 62.3486 81.4637 61.5606 82.3825 60.465ZM85.0175 56.96C85.2827 56.96 85.5371 56.8546 85.7246 56.6671C85.9121 56.4796 86.0175 56.2252 86.0175 55.96C86.0175 55.6948 85.9121 55.4404 85.7246 55.2529C85.5371 55.0654 85.2827 54.96 85.0175 54.96C84.7523 54.96 84.4979 55.0654 84.3104 55.2529C84.1229 55.4404 84.0175 55.6948 84.0175 55.96C84.0175 56.2252 84.1229 56.4796 84.3104 56.6671C84.4979 56.8546 84.7523 56.96 85.0175 56.96Z" fill="white"/>
<path d="M13.3626 79.126C12.5226 79.126 11.7712 78.9627 11.1086 78.636C10.4459 78.3093 9.92789 77.8567 9.55455 77.278C9.19055 76.69 9.00855 76.0227 9.00855 75.276V72.896C9.00855 72.1493 9.18589 71.4867 9.54055 70.908C9.90455 70.3293 10.4086 69.8813 11.0526 69.564C11.7059 69.2373 12.4479 69.074 13.2786 69.074C14.1092 69.074 14.8512 69.2 15.5046 69.452C16.1579 69.6947 16.6619 70.04 17.0166 70.488C17.3806 70.936 17.5626 71.4447 17.5626 72.014C17.5626 72.3873 17.4412 72.6813 17.1986 72.896C16.9559 73.1013 16.6246 73.204 16.2046 73.204C15.9619 73.204 15.7239 73.1713 15.4906 73.106C15.5186 72.91 15.5326 72.672 15.5326 72.392C15.5326 71.944 15.3226 71.58 14.9026 71.3C14.4826 71.0107 13.9412 70.866 13.2786 70.866C12.6252 70.866 12.0932 71.0573 11.6826 71.44C11.2719 71.8133 11.0666 72.2987 11.0666 72.896V75.276C11.0666 75.8827 11.2766 76.3773 11.6966 76.76C12.1259 77.1427 12.6812 77.334 13.3626 77.334C14.0252 77.334 14.5619 77.194 14.9726 76.914C15.3926 76.634 15.6026 76.27 15.6026 75.822C15.6026 75.514 15.5886 75.29 15.5606 75.15C15.8126 75.094 16.0412 75.066 16.2466 75.066C16.6666 75.066 17.0026 75.1733 17.2546 75.388C17.5066 75.6027 17.6326 75.8967 17.6326 76.27C17.6326 76.8207 17.4506 77.3153 17.0866 77.754C16.7319 78.1833 16.2279 78.5193 15.5746 78.762C14.9306 79.0047 14.1932 79.126 13.3626 79.126ZM25.0716 79.126C24.5769 79.126 24.1289 79.0187 23.7276 78.804C23.3263 78.58 23.0089 78.2767 22.7756 77.894C22.5423 77.502 22.4256 77.0633 22.4256 76.578V74.422C22.4256 73.9367 22.5469 73.5027 22.7896 73.12C23.0416 72.728 23.3869 72.4247 23.8256 72.21C24.2643 71.986 24.7496 71.874 25.2816 71.874C25.5989 71.874 25.9396 71.9393 26.3036 72.07C26.6769 72.2007 26.9849 72.3827 27.2276 72.616L27.2836 72.546C27.2369 72.4713 27.1343 72.378 26.9756 72.266V70.334C26.9756 69.942 27.1343 69.634 27.4516 69.41C27.7783 69.186 28.2683 69.074 28.9216 69.074V77.852C28.9216 78.216 28.7769 78.5193 28.4876 78.762C28.1983 79.0047 27.7549 79.126 27.1576 79.126V78.37C27.2696 78.23 27.3583 78.104 27.4236 77.992L27.3536 77.936C27.0549 78.3373 26.7329 78.636 26.3876 78.832C26.0516 79.028 25.6129 79.126 25.0716 79.126ZM25.6736 77.474C26.0656 77.474 26.3829 77.3853 26.6256 77.208C26.8776 77.0213 27.0036 76.788 27.0036 76.508V74.492C27.0036 74.2213 26.8776 73.9927 26.6256 73.806C26.3829 73.6193 26.0656 73.526 25.6736 73.526C25.2443 73.526 24.9129 73.6147 24.6796 73.792C24.4556 73.9693 24.3436 74.2213 24.3436 74.548V76.438C24.3436 76.774 24.4556 77.0307 24.6796 77.208C24.9129 77.3853 25.2443 77.474 25.6736 77.474ZM33.6023 79.126C33.0236 79.126 32.487 79.0093 31.9923 78.776C31.507 78.5427 31.1196 78.2253 30.8303 77.824C30.541 77.4227 30.3963 76.9747 30.3963 76.48V74.688C30.3963 74.1653 30.541 73.6893 30.8303 73.26C31.129 72.8213 31.5256 72.4807 32.0203 72.238C32.515 71.9953 33.047 71.874 33.6163 71.874C34.1763 71.874 34.6896 71.9907 35.1563 72.224C35.6323 72.448 36.0056 72.77 36.2763 73.19C36.547 73.6007 36.6823 74.0673 36.6823 74.59V75.346C36.6823 75.57 36.5983 75.7613 36.4303 75.92C36.2623 76.0693 36.0476 76.144 35.7863 76.144H32.2583V76.34C32.2583 76.7133 32.3703 77.0213 32.5943 77.264C32.8276 77.4973 33.1683 77.614 33.6163 77.614C34.055 77.614 34.377 77.5207 34.5823 77.334C34.7876 77.138 34.8903 76.8953 34.8903 76.606C35.077 76.5873 35.217 76.578 35.3103 76.578C35.693 76.578 35.987 76.6573 36.1923 76.816C36.3976 76.9747 36.5003 77.208 36.5003 77.516C36.5003 77.768 36.3743 78.02 36.1223 78.272C35.8703 78.524 35.5203 78.7293 35.0723 78.888C34.6336 79.0467 34.1436 79.126 33.6023 79.126ZM34.9463 74.786V74.59C34.9463 74.2167 34.8203 73.9227 34.5683 73.708C34.3256 73.484 34.0036 73.372 33.6023 73.372C33.201 73.372 32.8743 73.484 32.6223 73.708C32.3796 73.9227 32.2583 74.2167 32.2583 74.59V74.786H34.9463ZM44.6342 79.126C44.0182 79.126 43.4722 79.014 42.9962 78.79C42.5202 78.566 42.1468 78.258 41.8762 77.866C41.6148 77.4647 41.4842 77.012 41.4842 76.508V74.646C41.4842 74.1047 41.6148 73.624 41.8762 73.204C42.1468 72.784 42.5202 72.4573 42.9962 72.224C43.4722 71.9907 44.0135 71.874 44.6202 71.874C45.1895 71.874 45.6935 71.958 46.1322 72.126C46.5708 72.2847 46.9115 72.5087 47.1542 72.798C47.4062 73.0873 47.5322 73.4187 47.5322 73.792C47.5322 74.1 47.4108 74.3473 47.1682 74.534C46.9255 74.7207 46.6035 74.814 46.2022 74.814C46.0808 74.814 45.9922 74.8093 45.9362 74.8C45.9362 74.4267 45.8195 74.1233 45.5862 73.89C45.3528 73.6473 45.0495 73.526 44.6762 73.526C44.3028 73.526 43.9948 73.6427 43.7522 73.876C43.5188 74.1 43.4022 74.3893 43.4022 74.744V76.368C43.4022 76.6947 43.5188 76.9607 43.7522 77.166C43.9948 77.3713 44.3075 77.474 44.6902 77.474C45.0635 77.474 45.3668 77.3573 45.6002 77.124C45.8428 76.8907 45.9642 76.5873 45.9642 76.214C46.0295 76.2047 46.1228 76.2 46.2442 76.2C46.6455 76.2 46.9675 76.2933 47.2102 76.48C47.4528 76.6573 47.5742 76.9 47.5742 77.208C47.5742 77.5813 47.4482 77.9127 47.1962 78.202C46.9535 78.4913 46.6082 78.72 46.1602 78.888C45.7122 79.0467 45.2035 79.126 44.6342 79.126ZM51.4961 79.126C50.8801 79.126 50.3201 79.014 49.8161 78.79C49.3121 78.566 48.9155 78.258 48.6261 77.866C48.3368 77.4647 48.1921 77.012 48.1921 76.508V74.646C48.1921 74.1327 48.3321 73.666 48.6121 73.246C48.8921 72.8167 49.2841 72.4807 49.7881 72.238C50.2921 71.9953 50.8615 71.874 51.4961 71.874C52.1308 71.874 52.7001 71.9953 53.2041 72.238C53.7081 72.4807 54.1001 72.8167 54.3801 73.246C54.6601 73.666 54.8001 74.1327 54.8001 74.646V76.508C54.8001 77.012 54.6555 77.4647 54.3661 77.866C54.0768 78.258 53.6801 78.566 53.1761 78.79C52.6721 79.014 52.1121 79.126 51.4961 79.126ZM51.4961 77.474C51.9348 77.474 52.2755 77.376 52.5181 77.18C52.7608 76.984 52.8821 76.7133 52.8821 76.368V74.744C52.8821 74.38 52.7561 74.086 52.5041 73.862C52.2615 73.638 51.9255 73.526 51.4961 73.526C51.0668 73.526 50.7261 73.638 50.4741 73.862C50.2315 74.086 50.1101 74.38 50.1101 74.744V76.368C50.1101 76.7133 50.2315 76.984 50.4741 77.18C50.7168 77.376 51.0575 77.474 51.4961 77.474ZM55.7046 73.33C55.7046 72.8633 55.8539 72.504 56.1526 72.252C56.4512 72 56.9039 71.874 57.5106 71.874V72.7C57.3706 72.8493 57.2539 73.008 57.1606 73.176L57.2586 73.232C57.5572 72.784 57.8652 72.448 58.1826 72.224C58.5092 71.9907 58.8966 71.874 59.3446 71.874C60.1379 71.874 60.6886 72.2707 60.9966 73.064C61.2299 72.6907 61.5286 72.4013 61.8926 72.196C62.2566 71.9813 62.6672 71.874 63.1246 71.874C63.7592 71.874 64.2632 72.1073 64.6366 72.574C65.0192 73.0407 65.2106 73.6333 65.2106 74.352V78.006C65.2106 78.4073 65.0566 78.6967 64.7486 78.874C64.4406 79.042 63.9646 79.126 63.3206 79.126V74.52C63.3206 74.2027 63.2506 73.9507 63.1106 73.764C62.9706 73.5773 62.7512 73.484 62.4526 73.484C62.1539 73.484 61.9019 73.5913 61.6966 73.806C61.4912 74.0113 61.3886 74.3613 61.3886 74.856V78.006C61.3886 78.4073 61.2346 78.6967 60.9266 78.874C60.6279 79.042 60.1612 79.126 59.5266 79.126V74.52C59.5266 74.2027 59.4566 73.9507 59.3166 73.764C59.1766 73.5773 58.9619 73.484 58.6726 73.484C57.9539 73.484 57.5946 73.9647 57.5946 74.926V78.006C57.5946 78.4073 57.4406 78.6967 57.1326 78.874C56.8246 79.042 56.3486 79.126 55.7046 79.126V73.33ZM69.8191 79.126C69.2404 79.126 68.7038 79.0093 68.2091 78.776C67.7238 78.5427 67.3364 78.2253 67.0471 77.824C66.7578 77.4227 66.6131 76.9747 66.6131 76.48V74.688C66.6131 74.1653 66.7578 73.6893 67.0471 73.26C67.3458 72.8213 67.7424 72.4807 68.2371 72.238C68.7318 71.9953 69.2638 71.874 69.8331 71.874C70.3931 71.874 70.9064 71.9907 71.3731 72.224C71.8491 72.448 72.2224 72.77 72.4931 73.19C72.7638 73.6007 72.8991 74.0673 72.8991 74.59V75.346C72.8991 75.57 72.8151 75.7613 72.6471 75.92C72.4791 76.0693 72.2644 76.144 72.0031 76.144H68.4751V76.34C68.4751 76.7133 68.5871 77.0213 68.8111 77.264C69.0444 77.4973 69.3851 77.614 69.8331 77.614C70.2718 77.614 70.5938 77.5207 70.7991 77.334C71.0044 77.138 71.1071 76.8953 71.1071 76.606C71.2938 76.5873 71.4338 76.578 71.5271 76.578C71.9098 76.578 72.2038 76.6573 72.4091 76.816C72.6144 76.9747 72.7171 77.208 72.7171 77.516C72.7171 77.768 72.5911 78.02 72.3391 78.272C72.0871 78.524 71.7371 78.7293 71.2891 78.888C70.8504 79.0467 70.3604 79.126 69.8191 79.126ZM71.1631 74.786V74.59C71.1631 74.2167 71.0371 73.9227 70.7851 73.708C70.5424 73.484 70.2204 73.372 69.8191 73.372C69.4178 73.372 69.0911 73.484 68.8391 73.708C68.5964 73.9227 68.4751 74.2167 68.4751 74.59V74.786H71.1631ZM77.9556 73.526C77.3956 73.526 76.9429 73.6707 76.5976 73.96C76.2523 74.2493 76.0796 74.6133 76.0796 75.052V78.006C76.0796 78.4073 75.9209 78.6967 75.6036 78.874C75.2956 79.042 74.8149 79.126 74.1616 79.126V73.33C74.1616 72.8633 74.3156 72.504 74.6236 72.252C74.9316 72 75.3889 71.874 75.9956 71.874V72.7C75.8556 72.8493 75.7389 73.008 75.6456 73.176L75.7436 73.232C76.3316 72.3267 77.0643 71.874 77.9416 71.874C78.3616 71.874 78.6789 71.986 78.8936 72.21C79.1083 72.434 79.2156 72.7187 79.2156 73.064C79.2156 73.3253 79.1456 73.554 79.0056 73.75C78.7443 73.6007 78.3943 73.526 77.9556 73.526ZM82.7924 79.126C82.1764 79.126 81.6304 79.014 81.1544 78.79C80.6784 78.566 80.305 78.258 80.0344 77.866C79.773 77.4647 79.6424 77.012 79.6424 76.508V74.646C79.6424 74.1047 79.773 73.624 80.0344 73.204C80.305 72.784 80.6784 72.4573 81.1544 72.224C81.6304 71.9907 82.1717 71.874 82.7784 71.874C83.3477 71.874 83.8517 71.958 84.2904 72.126C84.729 72.2847 85.0697 72.5087 85.3124 72.798C85.5644 73.0873 85.6904 73.4187 85.6904 73.792C85.6904 74.1 85.569 74.3473 85.3264 74.534C85.0837 74.7207 84.7617 74.814 84.3604 74.814C84.239 74.814 84.1504 74.8093 84.0944 74.8C84.0944 74.4267 83.9777 74.1233 83.7444 73.89C83.511 73.6473 83.2077 73.526 82.8344 73.526C82.461 73.526 82.153 73.6427 81.9104 73.876C81.677 74.1 81.5604 74.3893 81.5604 74.744V76.368C81.5604 76.6947 81.677 76.9607 81.9104 77.166C82.153 77.3713 82.4657 77.474 82.8484 77.474C83.2217 77.474 83.525 77.3573 83.7584 77.124C84.001 76.8907 84.1224 76.5873 84.1224 76.214C84.1877 76.2047 84.281 76.2 84.4024 76.2C84.8037 76.2 85.1257 76.2933 85.3684 76.48C85.611 76.6573 85.7324 76.9 85.7324 77.208C85.7324 77.5813 85.6064 77.9127 85.3544 78.202C85.1117 78.4913 84.7664 78.72 84.3184 78.888C83.8704 79.0467 83.3617 79.126 82.7924 79.126ZM88.2318 71.342C87.8772 71.342 87.5785 71.2393 87.3358 71.034C87.1025 70.8193 86.9858 70.544 86.9858 70.208C86.9858 69.872 87.1025 69.6013 87.3358 69.396C87.5785 69.1813 87.8772 69.074 88.2318 69.074C88.5865 69.074 88.8805 69.1813 89.1138 69.396C89.3565 69.6013 89.4778 69.872 89.4778 70.208C89.4778 70.544 89.3565 70.8193 89.1138 71.034C88.8805 71.2393 88.5865 71.342 88.2318 71.342ZM87.2658 72.994C87.2658 72.5927 87.4245 72.308 87.7418 72.14C88.0592 71.9627 88.5398 71.874 89.1838 71.874V78.006C89.1838 78.4073 89.0252 78.6967 88.7078 78.874C88.3905 79.042 87.9098 79.126 87.2658 79.126V72.994ZM93.6876 79.126C93.0716 79.126 92.5116 79.014 92.0076 78.79C91.5036 78.566 91.1069 78.258 90.8176 77.866C90.5282 77.4647 90.3836 77.012 90.3836 76.508V74.646C90.3836 74.1327 90.5236 73.666 90.8036 73.246C91.0836 72.8167 91.4756 72.4807 91.9796 72.238C92.4836 71.9953 93.0529 71.874 93.6876 71.874C94.3222 71.874 94.8916 71.9953 95.3956 72.238C95.8996 72.4807 96.2916 72.8167 96.5716 73.246C96.8516 73.666 96.9916 74.1327 96.9916 74.646V76.508C96.9916 77.012 96.8469 77.4647 96.5576 77.866C96.2682 78.258 95.8716 78.566 95.3676 78.79C94.8636 79.014 94.3036 79.126 93.6876 79.126ZM93.6876 77.474C94.1262 77.474 94.4669 77.376 94.7096 77.18C94.9522 76.984 95.0736 76.7133 95.0736 76.368V74.744C95.0736 74.38 94.9476 74.086 94.6956 73.862C94.4529 73.638 94.1169 73.526 93.6876 73.526C93.2582 73.526 92.9176 73.638 92.6656 73.862C92.4229 74.086 92.3016 74.38 92.3016 74.744V76.368C92.3016 76.7133 92.4229 76.984 92.6656 77.18C92.9082 77.376 93.2489 77.474 93.6876 77.474Z" fill="white"/>
</g>
<defs>
<clipPath id="clip0_44_362">
<rect width="100" height="100" fill="white"/>
</clipPath>
</defs>
</svg>
